<svg width="48" height="48" viewBox="0 0 48 48" fill="none" xmlns="http://www.w3.org/2000/svg">
<circle cx="24" cy="24" r="24" fill="#DCFFCA"/>
<path d="M15.002 25.002C15.0031 29.9214 18.5804 34.1101 23.439 34.881V27.892H20.902V25.002H23.442V22.802C23.3284 21.7596 23.6845 20.7206 24.4136 19.967C25.1427 19.2133 26.1693 18.8231 27.215 18.902C27.9655 18.9142 28.7141 18.981 29.455 19.102V21.561H28.191C27.7558 21.504 27.3183 21.6478 27.0017 21.9517C26.6851 22.2557 26.5237 22.6869 26.563 23.124V25.002H29.334L28.891 27.893H26.563V34.881C31.8174 34.0506 35.502 29.2518 34.9475 23.9611C34.3929 18.6704 29.7932 14.74 24.4808 15.0172C19.1683 15.2945 15.0028 19.6824 15.002 25.002Z" fill="#2C2C2C"/>
</svg>
