<svg width="48" height="48" viewBox="0 0 48 48" fill="none" xmlns="http://www.w3.org/2000/svg">
<circle cx="24" cy="24" r="24" fill="#DCFFCA"/>
<path d="M18.1968 15.8335C22.732 15.8335 27.2678 15.8335 31.803 15.8335C31.8299 15.8447 31.856 15.8617 31.8842 15.8662C33.2108 16.0815 34.1633 17.1774 34.1642 18.511C34.1673 22.8373 34.1678 27.1636 34.1642 31.4895C34.1628 32.9702 32.9717 34.1616 31.4909 34.1629C27.1642 34.1665 22.8374 34.1715 18.5111 34.1594C17.3963 34.1562 16.5828 33.61 16.0917 32.6128C15.9679 32.3608 15.9177 32.0729 15.8334 31.8016C15.8334 27.2668 15.8334 22.7315 15.8334 18.1966C15.8446 18.1693 15.8612 18.1433 15.8661 18.115C16.0267 17.163 16.5487 16.4801 17.4191 16.0752C17.6631 15.9622 17.9367 15.9124 18.1968 15.8335ZM24.8685 20.1383C22.0804 20.2405 19.9395 22.6732 20.2359 25.483C20.4996 27.9838 22.7468 30.0474 25.5511 29.7622C28.044 29.5084 30.1236 27.2627 29.8343 24.4529C29.5737 21.927 27.3884 20.0531 24.8685 20.1383ZM32.0156 19.6181C32.0026 18.7756 31.4115 18.0195 30.4361 17.9913C29.6056 17.9675 28.836 18.5742 28.8051 19.5589C28.7782 20.4055 29.4038 21.1737 30.3859 21.1948C31.2384 21.2131 31.9613 20.5845 32.0156 19.6181Z" fill="#2C2C2C"/>
<path d="M25.0435 21.2046C27.1208 21.2077 28.8016 22.8992 28.7949 24.9798C28.7881 27.0488 27.1006 28.725 25.0282 28.7218C22.951 28.7187 21.2701 27.0273 21.2769 24.9466C21.2836 22.8776 22.9712 21.2015 25.0435 21.2046Z" fill="#2C2C2C"/>
<path d="M30.4034 20.1288C30.1011 20.1275 29.8657 19.8849 29.8711 19.5804C29.876 19.2867 30.1141 19.0553 30.4106 19.0566C30.7128 19.058 30.9483 19.3006 30.9429 19.6051C30.9379 19.8988 30.6994 20.1302 30.4034 20.1288Z" fill="#2C2C2C"/>
</svg>
