<svg width="48" height="48" viewBox="0 0 48 48" fill="none" xmlns="http://www.w3.org/2000/svg">
<circle cx="24" cy="24" r="24" fill="#DCFFCA"/>
<path d="M31.6752 18.9006C32.5358 18.3862 33.1797 17.5761 33.4867 16.6216C32.6781 17.1014 31.7933 17.4394 30.8707 17.621C29.5916 16.2679 27.565 15.9386 25.9233 16.8171C24.2815 17.6956 23.4312 19.5645 23.8474 21.3794C20.535 21.2131 17.4489 19.6484 15.3571 17.0747C14.2654 18.9577 14.8233 21.3648 16.632 22.5755C15.978 22.5545 15.3384 22.3774 14.7667 22.059C14.7667 22.0763 14.7667 22.0936 14.7667 22.1109C14.7671 24.0723 16.1495 25.7618 18.072 26.1506C17.4653 26.3156 16.829 26.3399 16.2115 26.2216C16.7522 27.899 18.2981 29.0481 20.0602 29.0824C18.6008 30.2278 16.7985 30.849 14.9434 30.8459C14.6145 30.8464 14.286 30.8275 13.9594 30.7893C15.8432 31.9999 18.0359 32.6424 20.2752 32.6402C23.3906 32.6616 26.3847 31.4334 28.5876 29.2303C30.7905 27.0272 32.0184 24.033 31.9968 20.9176C31.9968 20.739 31.9926 20.5614 31.9843 20.3848C32.7911 19.8017 33.4875 19.0793 34.0406 18.2517C33.289 18.5849 32.4916 18.8036 31.6752 18.9006Z" fill="#2C2C2C"/>
</svg>
