<svg width="48" height="48" viewBox="0 0 48 48" fill="none" xmlns="http://www.w3.org/2000/svg">
<circle cx="24" cy="24" r="24" fill="#DCFFCA"/>
<path d="M24.0068 31.8536H23.9844C23.915 31.8536 16.9676 31.8402 15.2148 31.3642C14.251 31.1045 13.4983 30.3514 13.2391 29.3874C12.924 27.6092 12.7717 25.806 12.7844 24.0002C12.7763 22.1914 12.9326 20.3856 13.2515 18.6051C13.5177 17.6402 14.2671 16.8836 15.2294 16.6082C16.934 16.1602 23.6899 16.1602 23.9766 16.1602H24.0001C24.0707 16.1602 31.0359 16.1736 32.7708 16.6496C33.7326 16.9106 34.4838 17.6622 34.7443 18.6242C35.0695 20.4089 35.2221 22.2209 35.2001 24.0349C35.2079 25.8415 35.0512 27.645 34.7319 29.4232C34.4695 30.386 33.7163 31.1375 32.7529 31.3978C31.0505 31.8491 24.2935 31.8536 24.0068 31.8536ZM21.7668 20.6458L21.7612 27.3658L27.5987 24.0058L21.7668 20.6458Z" fill="#2C2C2C"/>
</svg>
